<svg width="320" height="85" viewBox="0 0 320 85" fill="none" xmlns="http://www.w3.org/2000/svg">
<mask id="mask0_1151_494" style="mask-type:alpha" maskUnits="userSpaceOnUse" x="0" y="0" width="320" height="85">
<rect width="320" height="85" fill="white"/>
</mask>
<g mask="url(#mask0_1151_494)">
<rect y="-256" width="320" height="472" fill="#F7DE00" fill-opacity="0.2"/>
<path d="M1202 547.5C1559.17 547.5 1876.78 346.01 2102.69 31.7649C2328.67 -282.578 2466.5 -713.677 2466.5 -1187C2466.5 -1660.32 2328.67 -2091.42 2102.69 -2405.76C1876.78 -2720.01 1559.17 -2921.5 1202 -2921.5C844.833 -2921.5 527.221 -2720.01 301.31 -2405.76C75.3295 -2091.42 -62.5 -1660.32 -62.5 -1187C-62.5 -713.677 75.3295 -282.578 301.31 31.7649C527.221 346.01 844.833 547.5 1202 547.5Z" stroke="#FFA559" stroke-opacity="0.3" stroke-width="125"/>
</g>
</svg>
